Coordinates
version=1
nRows=16
nColumns=22
inDegrees=yes

Units are S.I. units (second, meters, Newtons, ...)
If the header above contains a line with 'inDegrees', this indicates whether rotational values are in degrees (yes) or radians (no).

endheader
time	pelvis_tilt	pelvis_list	pelvis_rotation	pelvis_tx	pelvis_ty	pelvis_tz	hip_flexion_r	hip_adduction_r	hip_rotation_r	knee_angle_r	ankle_angle_r	subtalar_angle_r	hip_flexion_l	hip_adduction_l	hip_rotation_l	knee_angle_l	ankle_angle_l	subtalar_angle_l	lumbar_extension	lumbar_bending	lumbar_rotation
      0.01000000	     -0.48207602	     -2.42328947	     -6.23340210	      0.12583191	      0.93323281	      1.14442695	     -1.72977694	      3.96720622	      3.98189512	     -6.86556722	      1.27245097	     -3.09654560	     -2.25937016	     -1.07472551	    -10.92427969	     -7.55045442	     10.43556821	      6.52823797	     -2.96155923	     -1.61484215	      0.05811847
      0.02000000	     -0.42763769	     -2.38260162	     -6.18335821	      0.12608839	      0.93322439	      1.14412370	     -1.81059734	      3.90792359	      4.05694296	     -6.84678588	      1.27423554	     -3.24526619	     -2.35322043	     -0.99030357	    -10.85216657	     -7.47585310	     10.35222005	      6.31583850	     -2.99100923	     -1.64405739	      0.01394190
      0.03000000	     -0.36341176	     -2.34805915	     -6.13618675	      0.12634307	      0.93323098	      1.14382434	     -1.90734665	      3.85337222	      4.12828925	     -6.81844849	      1.27492933	     -3.39079119	     -2.45437504	     -0.91220056	    -10.79094476	     -7.41122539	     10.27980143	      6.09662503	     -3.03456213	     -1.67046945	     -0.02324588
      0.04000000	     -0.31541093	     -2.32533500	     -6.10337085	      0.12655626	      0.93323202	      1.14354445	     -1.98072112	      3.81198122	      4.17008226	     -6.79652171	      1.26656547	     -3.51462856	     -2.53165986	     -0.84995050	    -10.74167541	     -7.36051899	     10.22210208	      5.91434279	     -3.06897155	     -1.67974411	     -0.05192045
      0.05000000	     -0.31357113	     -2.32810613	     -6.08908680	      0.12670348	      0.93317899	      1.14333637	     -1.98817827	      3.80403882	      4.17589046	     -6.80291970	      1.26436762	     -3.51807315	     -2.53665354	     -0.83315784	    -10.74199210	     -7.36323802	     10.21873638	      5.91015107	     -3.05857930	     -1.66353333	     -0.05082001
      0.06000000	     -0.29415495	     -2.31689063	     -6.07779831	      0.12684486	      0.93319620	      1.14315435	     -2.03317212	      3.77857864	      4.15383738	     -6.76459663	      1.23023909	     -3.68311463	     -2.58916039	     -0.79323718	    -10.69117274	     -7.30230827	     10.15842626	      5.67920523	     -3.07031304	     -1.66786394	     -0.07009843
      0.07000000	     -0.30852144	     -2.33247473	     -6.09214159	      0.12692973	      0.93318041	      1.14304635	     -2.02913382	      3.78535841	      4.10445284	     -6.74919568	      1.21296713	     -3.69214765	     -2.58636034	     -0.79781836	    -10.70837916	     -7.28915010	     10.13995550	      5.66602373	     -3.05057948	     -1.64255498	     -0.04901439
      0.08000000	     -0.35011181	     -2.36272909	     -6.11335493	      0.12693175	      0.93315625	      1.14298009	     -1.97316086	      3.81375560	      4.01606148	     -6.76785584	      1.14282898	     -3.71981776	     -2.54720489	     -0.82717447	    -10.72469457	     -7.28424758	     10.11911546	      5.63377650	     -3.01614833	     -1.60038909	     -0.02929275
      0.09000000	     -0.42404445	     -2.39520068	     -6.13613547	      0.12692645	      0.93309546	      1.14293837	     -1.88419001	      3.84854349	      3.90746734	     -6.78273198	      1.08959881	     -3.73796124	     -2.46251468	     -0.86880488	    -10.75243437	     -7.30386825	     10.12259642	      5.61964175	     -2.94190704	     -1.55423207	     -0.00665263
      0.10000000	     -0.52171949	     -2.42397627	     -6.15856316	      0.12690904	      0.93300158	      1.14290157	     -1.76726943	      3.88259146	      3.80038386	     -6.80168516	      1.04918795	     -3.74002966	     -2.34094287	     -0.91321336	    -10.78664376	     -7.34472707	     10.13243347	      5.63153412	     -2.84100319	     -1.51006305	      0.01535336
      0.11000000	     -0.63127883	     -2.44571748	     -6.17479598	      0.12690356	      0.93288556	      1.14285917	     -1.64124367	      3.91090897	      3.70948309	     -6.81527307	      1.02224620	     -3.73131057	     -2.19972113	     -0.95397853	    -10.81818883	     -7.39982863	     10.14438519	      5.66198499	     -2.72603989	     -1.47258389	      0.03276403
      0.12000000	     -0.66172693	     -2.45345428	     -6.18938672	      0.12699374	      0.93286468	      1.14279351	     -1.63232144	      3.91119039	      3.66253921	     -6.77796631	      1.02843050	     -3.72850861	     -2.17056634	     -0.96382796	    -10.82750730	     -7.41106954	     10.13999919	      5.66821682	     -2.69134554	     -1.45816198	      0.06606417
      0.13000000	     -0.79332586	     -2.47577434	     -6.18792077	      0.12700852	      0.93270060	      1.14271226	     -1.47736578	      3.94503508	      3.60222493	     -6.80775102	      0.97494086	     -3.71233851	     -1.98876056	     -1.01075436	    -10.86495514	     -7.49828391	     10.13487758	      5.72677510	     -2.55242097	     -1.41456686	      0.05142072
      0.14000000	     -0.82030353	     -2.47339101	     -6.18543640	      0.12718232	      0.93265359	      1.14260529	     -1.48042215	      3.93501448	      3.58957606	     -6.76773603	      0.99898954	     -3.70923455	     -1.96580920	     -1.00745981	    -10.86683291	     -7.51065487	     10.14055059	      5.73770557	     -2.51273564	     -1.41104242	      0.07372660
      0.15000000	     -0.89511820	     -2.46483895	     -6.17613716	      0.12732212	      0.93253262	      1.14247540	     -1.41706585	      3.92541424	      3.63105590	     -6.75429630	      1.00678503	     -3.69702597	     -1.86651552	     -1.00593846	    -10.87471203	     -7.56448980	     10.12773062	      5.79927986	     -2.42298366	     -1.40539740	      0.05291743
      0.16000000	     -0.90836846	     -2.46409064	     -6.16059118	      0.12755819	      0.93248446	      1.14232527	     -1.43339188	      3.91560633	      3.63214294	     -6.72644070	      1.02025818	     -3.69525254	     -1.86238038	     -0.99927779	    -10.87915731	     -7.57355541	     10.12278249	      5.80642565	     -2.39568225	     -1.39874300	      0.06561582
